<svg id="Layer_1" data-name="Layer 1" xmlns="http://www.w3.org/2000/svg" viewBox="0 0 29.87 40.96">
  <defs>
    <style>
      .cls-1{fill:#fff;}
      .cls-1,.cls-2{stroke:#231f20;stroke-miterlimit:10;}
      .cls-2{fill:#231f20;}
    </style>
  </defs>
  <path 
    class="cls-1" 
    d="M28.87,45H19.13c-2.56,0-5.59-2.24-5.59-4.8L11,12.31H37.09L34.4,40.55C34.4,43.1,31.42,45,28.87,45Z" 
    transform="translate(-9.09 -4.52)"
  />
  <path 
    class="cls-1" 
    d="M2,2.47H27.84A1.53,1.53,0,0,1,29.37,4V5.52a0,0,0,0,1,0,0H.5a0,0,0,0,1,0,0V4A1.53,1.53,0,0,1,2,2.47Z"
  />
  <path class="cls-1" d="M13,.5h3.9a1.26,1.26,0,0,1,1.26,1.26v.71a0,0,0,0,1,0,0H11.73a0,0,0,0,1,0,0V1.76A1.26,1.26,0,0,1,13,.5Z"/>
  <g>
    <rect class="cls-2" x="14.55" y="10.57" width="0.77" height="27.1" rx="0.39"/>
    <rect class="cls-2" x="17.58" y="15.1" width="0.77" height="27.1" rx="0.39" transform="translate(-11.04 -3.2) rotate(-4)"/>
    <rect class="cls-2" x="29.61" y="15.1" width="0.77" height="27.1" rx="0.39" transform="translate(-7.02 -6.55) rotate(4)"/>
  </g>
</svg>